<?xml version="1.0" encoding="UTF-8" standalone="no"?>
<!-- Created with Inkscape (http://www.inkscape.org/) -->

<svg
   xmlns:dc="http://purl.org/dc/elements/1.1/"
   xmlns:cc="http://creativecommons.org/ns#"
   xmlns:rdf="http://www.w3.org/1999/02/22-rdf-syntax-ns#"
   xmlns:svg="http://www.w3.org/2000/svg"
   xmlns="http://www.w3.org/2000/svg"
   xmlns:sodipodi="http://sodipodi.sourceforge.net/DTD/sodipodi-0.dtd"
   xmlns:inkscape="http://www.inkscape.org/namespaces/inkscape"
   width="24.929878mm"
   height="27.399803mm"
   viewBox="0 0 88.334214 97.085916"
   id="svg4252"
   version="1.1"
   inkscape:version="0.91 r13725"
   sodipodi:docname="asian-food.svg">
  <defs
     id="defs4254" />
  <sodipodi:namedview
     id="base"
     pagecolor="#ffffff"
     bordercolor="#666666"
     borderopacity="1.0"
     inkscape:pageopacity="0.0"
     inkscape:pageshadow="2"
     inkscape:zoom="1.4"
     inkscape:cx="-74.26354"
     inkscape:cy="-31.416797"
     inkscape:document-units="px"
     inkscape:current-layer="g4852"
     showgrid="false"
     fit-margin-top="1"
     fit-margin-left="1"
     fit-margin-right="1"
     fit-margin-bottom="1"
     inkscape:window-width="1366"
     inkscape:window-height="747"
     inkscape:window-x="0"
     inkscape:window-y="159"
     inkscape:window-maximized="1" />
  <metadata
     id="metadata4257">
    <rdf:RDF>
      <cc:Work
         rdf:about="">
        <dc:format>image/svg+xml</dc:format>
        <dc:type
           rdf:resource="http://purl.org/dc/dcmitype/StillImage" />
        <dc:title />
      </cc:Work>
    </rdf:RDF>
  </metadata>
  <g
     inkscape:label="Layer 1"
     inkscape:groupmode="layer"
     id="layer1"
     transform="translate(-229.05732,-125.05996)">
    <g
       id="g4852"
       transform="translate(223.22463,123.60257)">
      <path
         id="path4840"
         d="m 55.375,92.502 -29.75,0 c -0.69,0 -1.249,0.559 -1.249,1.249 0,0.69 0.559,1.249 1.249,1.249 l 29.75,0 c 0.69,0 1.249,-0.559 1.249,-1.249 0,-0.69 -0.559,-1.249 -1.249,-1.249 z M 89.146,19.773 15.397,33.523 c -0.679,0.127 -1.125,0.779 -0.998,1.457 0.112,0.601 0.637,1.021 1.225,1.021 0.078,0 0.153,-0.008 0.231,-0.022 l 30.002,-5.593 c -0.107,0.185 -0.186,0.386 -0.186,0.615 0,6.19 -1.094,8.628 -1.972,10.585 -0.635,1.415 -1.235,2.75 -1.235,4.914 0,2.512 1.477,5.7 3.041,9.075 1.428,3.083 2.892,6.252 3.27,8.926 l -5.735,0 c -0.3,-3.206 -1.273,-4.898 -2.304,-6.669 -0.969,-1.661 -1.972,-3.382 -2.635,-6.817 -1.337,-6.91 1.993,-10.222 2.128,-10.354 0.502,-0.471 0.529,-1.262 0.056,-1.764 -0.471,-0.508 -1.264,-0.53 -1.764,-0.057 -0.186,0.171 -4.485,4.316 -2.875,12.647 0.747,3.853 1.906,5.844 2.931,7.604 0.928,1.593 1.687,2.906 1.954,5.409 l -6.29,0 c -0.308,-2.781 -1.521,-4.934 -2.758,-6.983 -1.342,-2.228 -2.61,-4.331 -2.61,-7.267 0,-3.199 0.852,-4.854 1.752,-6.608 0.817,-1.586 1.742,-3.387 1.993,-6.285 0.062,-0.686 -0.448,-1.293 -1.137,-1.352 -0.69,-0.037 -1.291,0.448 -1.352,1.137 -0.21,2.408 -0.947,3.841 -1.728,5.358 -0.996,1.939 -2.028,3.948 -2.028,7.75 0,3.631 1.511,6.135 2.97,8.558 1.091,1.811 2.086,3.562 2.394,5.692 l -21.111,0 c -0.69,0 -1.25,0.56 -1.25,1.25 0,10.038 6.879,18.098 13.316,22.297 0.205,0.132 0.441,0.203 0.683,0.203 l 33.249,0 c 0.228,0 0.449,-0.062 0.642,-0.179 5.198,-3.115 14.858,-15.804 14.858,-22.321 0,-0.69 -0.559,-1.25 -1.25,-1.25 l -19.579,0 c -0.358,-3.138 -1.962,-6.607 -3.523,-9.978 -1.444,-3.118 -2.809,-6.063 -2.809,-8.023 0,-1.627 0.427,-2.576 1.015,-3.892 0.977,-2.174 2.191,-4.88 2.191,-11.607 0,-0.393 -0.192,-0.729 -0.476,-0.958 l 41.911,-7.814 c 0.679,-0.127 1.125,-0.778 0.998,-1.457 -0.126,-0.68 -0.79,-1.126 -1.456,-0.998 z M 69.496,67 c -1.089,5.766 -8.867,15.899 -13.23,18.752 l -32.515,0 C 18.464,82.194 12.471,75.325 11.917,67 l 57.579,0 z M 15.626,30.749 c 0.129,0 0.261,-0.02 0.393,-0.063 L 86.267,7.437 C 86.921,7.22 87.277,6.515 87.06,5.859 86.843,5.205 86.145,4.846 85.481,5.065 l -70.248,23.25 c -0.653,0.217 -1.01,0.922 -0.793,1.578 0.173,0.525 0.661,0.856 1.186,0.856 z M 50.124,81.95 c 0.104,0 0.212,-0.012 0.319,-0.041 8.284,-2.187 12.137,-9.868 12.298,-10.192 0.303,-0.62 0.047,-1.369 -0.57,-1.674 -0.617,-0.296 -1.369,-0.049 -1.674,0.57 -0.034,0.071 -3.5,6.981 -10.693,8.88 -0.666,0.176 -1.063,0.859 -0.888,1.527 0.148,0.56 0.654,0.93 1.208,0.93 z"
         inkscape:connector-curvature="0"
         style="fill:#ffffff" />
    </g>
  </g>
</svg>
