<?xml version="1.0" encoding="UTF-8" standalone="no"?>
<!-- Created with Inkscape (http://www.inkscape.org/) -->

<svg
   xmlns:dc="http://purl.org/dc/elements/1.1/"
   xmlns:cc="http://creativecommons.org/ns#"
   xmlns:rdf="http://www.w3.org/1999/02/22-rdf-syntax-ns#"
   xmlns:svg="http://www.w3.org/2000/svg"
   xmlns="http://www.w3.org/2000/svg"
   xmlns:sodipodi="http://sodipodi.sourceforge.net/DTD/sodipodi-0.dtd"
   xmlns:inkscape="http://www.inkscape.org/namespaces/inkscape"
   width="19.493687mm"
   height="19.497778mm"
   viewBox="0 0 69.072118 69.086614"
   id="svg5525"
   version="1.1"
   inkscape:version="0.91 r13725"
   sodipodi:docname="bbq.svg">
  <defs
     id="defs5527" />
  <sodipodi:namedview
     id="base"
     pagecolor="#ffffff"
     bordercolor="#666666"
     borderopacity="1.0"
     inkscape:pageopacity="0"
     inkscape:pageshadow="2"
     inkscape:zoom="1.4"
     inkscape:cx="-119.79644"
     inkscape:cy="26.046257"
     inkscape:document-units="px"
     inkscape:current-layer="g6097"
     showgrid="false"
     fit-margin-top="1"
     fit-margin-left="1"
     fit-margin-right="1"
     fit-margin-bottom="1"
     inkscape:window-width="1366"
     inkscape:window-height="747"
     inkscape:window-x="0"
     inkscape:window-y="159"
     inkscape:window-maximized="1" />
  <metadata
     id="metadata5530">
    <rdf:RDF>
      <cc:Work
         rdf:about="">
        <dc:format>image/svg+xml</dc:format>
        <dc:type
           rdf:resource="http://purl.org/dc/dcmitype/StillImage" />
        <dc:title></dc:title>
      </cc:Work>
    </rdf:RDF>
  </metadata>
  <g
     inkscape:label="Layer 1"
     inkscape:groupmode="layer"
     id="layer1"
     transform="translate(-157.35751,-218.20247)">
    <g
       id="g6097"
       transform="translate(159.90082,220.74578)">
      <g
         id="g6075"
         style="fill:#ffffff">
        <rect
           id="rect6077"
           height="2"
           width="2"
           y="56"
           x="52"
           style="fill:#ffffff" />
        <path
           id="path6079"
           d="M 58.153,8.29 C 50.873,-0.275 37.957,-1.453 29.362,5.667 L 28.432,6.437 53.228,27 20,27 l 0,9 c 0,3.519 2.614,6.432 6,6.92 l 0,15.262 c 0,2.657 2.161,4.818 4.818,4.818 0.976,0 1.917,-0.291 2.721,-0.842 L 50,50.896 l 0,0.916 c -1.79,1.039 -3,2.973 -3,5.188 0,3.309 2.691,6 6,6 3.309,0 6,-2.691 6,-6 0,-2.215 -1.21,-4.149 -3,-5.188 l 0,-8.892 c 3.386,-0.488 6,-3.401 6,-6.92 l 0,-8.387 C 64.159,21.001 62.724,13.665 58.153,8.29 Z M 31.599,6.463 C 39.328,0.878 50.32,2.161 56.63,9.585 60.751,14.432 62.046,21.045 60.098,27 L 56.361,27 31.599,6.463 Z M 32.41,60.508 C 31.939,60.83 31.389,61 30.818,61 29.265,61 28,59.735 28,58.182 L 28,41 c 0,-0.552 0.448,-1 1,-1 0.552,0 1,0.448 1,1 l 0,16.728 c 0,0.371 0.206,0.712 0.534,0.885 0.329,0.174 0.727,0.15 1.031,-0.061 L 50,45.899 50,48.473 32.41,60.508 Z M 50,43.474 32,55.828 32,43 l 18,0 0,0.474 z M 53,61 c -2.206,0 -4,-1.794 -4,-4 0,-2.206 1.794,-4 4,-4 2.206,0 4,1.794 4,4 0,2.206 -1.794,4 -4,4 z m 0,-10 c -0.341,0 -0.674,0.035 -1,0.09 L 52,41 c 0,-0.552 0.448,-1 1,-1 0.552,0 1,0.448 1,1 l 0,10.09 C 53.674,51.035 53.341,51 53,51 Z M 55.99,40.9 C 55.936,39.293 54.62,38 53,38 c -1.654,0 -3,1.346 -3,3 l -18,0 c 0,-1.654 -1.346,-3 -3,-3 -1.62,0 -2.936,1.293 -2.99,2.9 C 23.726,40.439 22,38.418 22,36 l 0,-3 4,0 0,-2 -4,0 0,-2 38,0 0,2 -32,0 0,2 32,0 0,3 c 0,2.418 -1.726,4.439 -4.01,4.9 z"
           inkscape:connector-curvature="0"
           style="fill:#ffffff" />
        <path
           id="path6081"
           d="M 13,9 11.974,9 C 12.609,8.162 13,7.13 13,6 13,3.243 10.757,1 8,1 5.243,1 3,3.243 3,6 3,7.13 3.391,8.162 4.026,9 L 3,9 C 1.897,9 1,9.897 1,11 l 0,2 c 0,1.103 0.897,2 2,2 l 1.286,0 C 3.533,15.855 2.953,16.826 2.565,17.574 2.19,18.299 2,19.084 2,19.909 2,21.077 2.411,22.14 3.074,23 L 3,23 c -1.103,0 -2,0.897 -2,2 l 0,2 c 0,1.103 0.897,2 2,2 l 1.286,0 C 3.533,29.855 2.953,30.826 2.565,31.574 2.19,32.299 2,33.085 2,33.909 c 0,2.776 2.236,5.032 5,5.082 L 7,63 9,63 9,38.991 c 2.764,-0.05 5,-2.306 5,-5.082 0,-0.824 -0.19,-1.61 -0.565,-2.335 C 13.047,30.826 12.468,29.855 11.715,29 L 13,29 c 1.103,0 2,-0.897 2,-2 l 0,-2 c 0,-1.103 -0.897,-2 -2,-2 l -0.074,0 C 13.589,22.14 14,21.077 14,19.909 14,19.084 13.81,18.299 13.435,17.574 13.047,16.826 12.468,15.855 11.715,15 L 13,15 c 1.103,0 2,-0.897 2,-2 l 0,-2 C 15,9.897 14.103,9 13,9 Z M 5,6 C 5,4.346 6.346,3 8,3 9.654,3 11,4.346 11,6 11,7.654 9.654,9 8,9 6.346,9 5,7.654 5,6 Z m 6.658,26.493 C 11.885,32.931 12,33.407 12,33.909 12,35.613 10.613,37 8.909,37 L 7.091,37 C 5.387,37 4,35.613 4,33.909 4,33.407 4.115,32.931 4.341,32.493 5.475,30.306 6.843,29 8,29 c 1.157,0 2.525,1.306 3.658,3.493 z M 13,27 3,27 3,25 7.091,25 8.909,25 13,25 13,27 Z M 11.658,18.493 C 11.885,18.931 12,19.407 12,19.909 12,21.613 10.613,23 8.909,23 L 7.091,23 C 5.387,23 4,21.613 4,19.909 4,19.407 4.115,18.931 4.341,18.493 5.475,16.306 6.843,15 8,15 c 1.157,0 2.525,1.306 3.658,3.493 z M 3,13 3,11 13,11 13.001,13 3,13 Z"
           inkscape:connector-curvature="0"
           style="fill:#ffffff" />
        <path
           id="path6083"
           d="m 23.715,17.163 c 0.03,0.426 -0.119,0.828 -0.422,1.13 -0.708,0.708 -1.074,1.688 -1.003,2.686 0.071,1 0.571,1.917 1.373,2.519 L 25.4,24.8 26.6,23.2 24.864,21.898 c -0.343,-0.257 -0.548,-0.633 -0.578,-1.06 -0.03,-0.426 0.119,-0.828 0.422,-1.13 0.708,-0.708 1.074,-1.688 1.003,-2.686 -0.071,-1 -0.571,-1.917 -1.373,-2.519 L 22.6,13.2 l -1.2,1.6 1.736,1.302 c 0.343,0.257 0.549,0.634 0.579,1.061 z"
           inkscape:connector-curvature="0"
           style="fill:#ffffff" />
        <path
           id="path6085"
           d="m 32.71,17.021 c -0.071,-1 -0.571,-1.917 -1.373,-2.519 L 29.6,13.2 l -1.2,1.6 1.736,1.302 c 0.343,0.257 0.548,0.633 0.578,1.06 0.03,0.426 -0.119,0.828 -0.422,1.13 -0.708,0.708 -1.074,1.688 -1.003,2.686 0.071,1 0.571,1.917 1.373,2.519 L 32.4,24.8 33.6,23.2 31.864,21.898 c -0.343,-0.257 -0.548,-0.633 -0.578,-1.06 -0.03,-0.426 0.119,-0.828 0.422,-1.13 0.707,-0.709 1.073,-1.688 1.002,-2.687 z"
           inkscape:connector-curvature="0"
           style="fill:#ffffff" />
      </g>
    </g>
  </g>
</svg>
