<?xml version="1.0" encoding="UTF-8" standalone="no"?>
<!-- Created with Inkscape (http://www.inkscape.org/) -->

<svg
   xmlns:dc="http://purl.org/dc/elements/1.1/"
   xmlns:cc="http://creativecommons.org/ns#"
   xmlns:rdf="http://www.w3.org/1999/02/22-rdf-syntax-ns#"
   xmlns:svg="http://www.w3.org/2000/svg"
   xmlns="http://www.w3.org/2000/svg"
   xmlns:sodipodi="http://sodipodi.sourceforge.net/DTD/sodipodi-0.dtd"
   xmlns:inkscape="http://www.inkscape.org/namespaces/inkscape"
   width="28.449312mm"
   height="28.447357mm"
   viewBox="0 0 100.80465 100.79772"
   id="svg2"
   version="1.1"
   inkscape:version="0.91 r13725"
   sodipodi:docname="mexican-tacos.svg">
  <defs
     id="defs4" />
  <sodipodi:namedview
     id="base"
     pagecolor="#ffffff"
     bordercolor="#666666"
     borderopacity="1.0"
     inkscape:pageopacity="0.0"
     inkscape:pageshadow="2"
     inkscape:zoom="2.8"
     inkscape:cx="-56.726444"
     inkscape:cy="51.651766"
     inkscape:document-units="px"
     inkscape:current-layer="g4202"
     showgrid="false"
     fit-margin-top="1"
     fit-margin-left="1"
     fit-margin-right="1"
     fit-margin-bottom="1"
     inkscape:window-width="1366"
     inkscape:window-height="747"
     inkscape:window-x="0"
     inkscape:window-y="159"
     inkscape:window-maximized="1" />
  <metadata
     id="metadata7">
    <rdf:RDF>
      <cc:Work
         rdf:about="">
        <dc:format>image/svg+xml</dc:format>
        <dc:type
           rdf:resource="http://purl.org/dc/dcmitype/StillImage" />
        <dc:title />
      </cc:Work>
    </rdf:RDF>
  </metadata>
  <g
     inkscape:label="Layer 1"
     inkscape:groupmode="layer"
     id="layer1"
     transform="translate(-125.28937,-152.48104)">
    <g
       id="g4202"
       transform="translate(125.95071,153.32435)">
      <g
         id="g4138"
         style="fill:#ffffff">
        <path
           id="path4140"
           d="m 81.2,29 c -10,-8.9 -24.7,-10.1 -36.5,-3.1 -2.9,-0.8 -6.2,0 -8.4,2.2 -1.5,1.5 -2.3,3.3 -2.5,5.4 -0.7,0.3 -1.3,0.7 -1.8,1.2 -1.8,0 -3.6,0.8 -4.9,2.1 -1.3,1.3 -2,3 -2.1,4.8 -0.9,0.4 -1.7,1 -2.4,1.7 -0.9,0.9 -1.5,1.9 -2,3 -0.9,0.3 -1.8,0.7 -2.5,1.4 -1.6,1.6 -2.1,4 -1.2,6 -0.1,0.1 -0.1,0.1 -0.2,0.2 -3.4,3.4 -3.4,8.9 0,12.3 0.6,0.6 1.4,1.2 2.2,1.6 0.8,5.9 3.2,11.5 7.3,16.2 1.4,1.6 3.4,2.5 5.5,2.6 0.1,0 0.2,0 0.2,0 2.1,0 4,-0.8 5.4,-2.3 L 80,41.8 c 0,0 0,0 0,0 0,0 0,0 0,0 l 1.3,-1.3 c 0.1,-0.1 0.1,-0.1 0.2,-0.2 l 0.1,-0.1 c 1.5,-1.5 2.3,-3.5 2.3,-5.7 0,-2.2 -1.1,-4 -2.7,-5.5 z m -1.3,1.5 c 1.2,1.1 1.9,2.5 1.9,4.1 0,0.1 0,0.3 0,0.4 C 81.5,33.8 80.9,32.7 80,31.8 77.9,29.7 74.7,29.2 72,30.4 71.9,30.3 71.8,30.1 71.6,30 69.8,28.2 67,27.6 64.6,28.4 64.4,28.1 64.1,27.9 63.8,27.7 61.2,25.6 57.6,25.3 54.8,27 52.7,25.4 49.6,25.5 47.6,27.3 47.4,27.1 47.2,27 46.9,26.8 c 11,-5.6 24,-4.3 33,3.7 z m -51.4,7.6 c 1,-1 2.4,-1.5 3.9,-1.5 0.3,0 0.6,-0.1 0.8,-0.3 0,-0.1 0.1,-0.1 0.2,-0.2 0.4,-0.4 1,-0.7 1.6,-0.9 0.4,-0.1 0.7,-0.5 0.7,-1 0,-1.8 0.7,-3.4 2,-4.7 2.6,-2.6 6.8,-2.6 9.4,-0.1 0.2,0.2 0.5,0.3 0.8,0.2 0.3,0 0.6,-0.2 0.7,-0.4 0.1,-0.1 0.2,-0.2 0.3,-0.3 1.4,-1.4 3.7,-1.4 5.1,0 0,0 0,0.1 0.1,0.1 0.3,0.4 0.9,0.4 1.3,0.1 2.2,-1.6 5.2,-1.5 7.2,0.2 0.3,0.3 0.7,0.6 0.9,1 0.3,0.4 0.8,0.5 1.2,0.3 1.8,-0.9 4,-0.5 5.4,0.9 0.2,0.2 0.5,0.5 0.6,0.8 0.1,0.2 0.4,0.4 0.6,0.4 0.2,0 0.5,0 0.8,-0.1 2,-1.3 4.6,-1 6.3,0.7 1.7,1.7 1.9,4.4 0.6,6.4 -1,0.7 -2.2,1.1 -3.4,1.1 -1.6,0 -3.2,-0.6 -4.3,-1.8 -5.5,-5.5 -13.2,-8.3 -21.5,-7.9 -8,0.5 -15.9,4 -21.7,9.8 -0.4,0.4 -0.8,0.8 -1.2,1.3 0,0 0,0 0,0 0,-1.6 0.5,-3 1.6,-4.1 z M 18.2,64.8 c -2.6,-2.6 -2.6,-6.9 0,-9.5 0.2,-0.2 0.4,-0.4 0.6,-0.6 0.4,-0.3 0.5,-0.9 0.3,-1.3 -0.8,-1.4 -0.6,-3.2 0.5,-4.4 0.5,-0.5 1.2,-0.9 2,-1 0.4,-0.1 0.7,-0.3 0.8,-0.7 0.3,-1.1 0.9,-2 1.7,-2.8 0.6,-0.6 1.2,-1 2,-1.4 -5.2,6.4 -7.7,14.3 -7.3,22 -0.3,0 -0.5,-0.1 -0.6,-0.3 z m 17.9,18.1 c -1.1,1.1 -2.6,1.7 -4.2,1.7 -1.6,0 -3,-0.7 -4.1,-1.9 -10.1,-11.5 -9.3,-29.2 1.9,-40.4 5.4,-5.4 12.9,-8.8 20.4,-9.2 7.7,-0.4 14.8,2.1 20,7.3 1.5,1.5 3.6,2.4 5.7,2.4 0.2,0 0.4,0 0.5,0 L 36.1,82.9 Z"
           inkscape:connector-curvature="0"
           style="fill:#ffffff" />
        <path
           id="path4142"
           d="m 95.8,37.6 0.5,-0.5 c 0.4,-0.4 0.4,-1 0,-1.4 -0.4,-0.4 -1,-0.4 -1.4,0 l -0.5,0.5 -0.5,-0.5 c -0.4,-0.4 -1,-0.4 -1.4,0 -0.4,0.4 -0.4,1 0,1.4 l 0.5,0.5 -0.5,0.5 c -0.4,0.4 -0.4,1 0,1.4 0.2,0.2 0.5,0.3 0.7,0.3 0.2,0 0.5,-0.1 0.7,-0.3 l 0.5,-0.5 0.5,0.5 c 0.2,0.2 0.5,0.3 0.7,0.3 0.2,0 0.5,-0.1 0.7,-0.3 0.4,-0.4 0.4,-1 0,-1.4 l -0.5,-0.5 z"
           inkscape:connector-curvature="0"
           style="fill:#ffffff" />
        <path
           id="path4144"
           d="m 24.1,19.3 c 0.2,0.2 0.5,0.3 0.7,0.3 0.2,0 0.5,-0.1 0.7,-0.3 l 0.5,-0.5 0.5,0.5 c 0.2,0.2 0.5,0.3 0.7,0.3 0.2,0 0.5,-0.1 0.7,-0.3 0.4,-0.4 0.4,-1 0,-1.4 l -0.5,-0.5 0.5,-0.5 c 0.4,-0.4 0.4,-1 0,-1.4 -0.4,-0.4 -1,-0.4 -1.4,0 L 26,16 25.5,15.5 c -0.4,-0.4 -1,-0.4 -1.4,0 -0.4,0.4 -0.4,1 0,1.4 l 0.5,0.5 -0.5,0.5 c -0.4,0.4 -0.4,1.1 0,1.4 z"
           inkscape:connector-curvature="0"
           style="fill:#ffffff" />
        <path
           id="path4146"
           d="m 76.8,69.1 -0.7,0 0,-0.7 c 0,-0.6 -0.4,-1 -1,-1 -0.6,0 -1,0.4 -1,1 l 0,0.7 -0.7,0 c -0.6,0 -1,0.4 -1,1 0,0.6 0.4,1 1,1 l 0.7,0 0,0.7 c 0,0.6 0.4,1 1,1 0.6,0 1,-0.4 1,-1 l 0,-0.7 0.7,0 c 0.6,0 1,-0.4 1,-1 0,-0.6 -0.4,-1 -1,-1 z"
           inkscape:connector-curvature="0"
           style="fill:#ffffff" />
        <path
           id="path4148"
           d="m 11.2,76.6 c -0.4,-0.4 -1,-0.4 -1.4,0 L 9.5,76.9 9.2,76.6 c -0.4,-0.4 -1,-0.4 -1.4,0 -0.4,0.4 -0.4,1 0,1.4 l 0.3,0.3 -0.3,0.3 c -0.4,0.4 -0.4,1 0,1.4 0.2,0.2 0.5,0.3 0.7,0.3 0.2,0 0.5,-0.1 0.7,-0.3 L 9.5,79.7 9.8,80 c 0.2,0.2 0.5,0.3 0.7,0.3 0.2,0 0.5,-0.1 0.7,-0.3 0.4,-0.4 0.4,-1 0,-1.4 L 10.9,78.3 11.2,78 c 0.4,-0.4 0.4,-1 0,-1.4 z"
           inkscape:connector-curvature="0"
           style="fill:#ffffff" />
        <path
           id="path4150"
           d="m 75,13.6 c 0.2,0.2 0.5,0.3 0.7,0.3 0.2,0 0.5,-0.1 0.7,-0.3 l 0.3,-0.3 0.3,0.3 c 0.2,0.2 0.5,0.3 0.7,0.3 0.2,0 0.5,-0.1 0.7,-0.3 0.4,-0.4 0.4,-1 0,-1.4 l -0.3,-0.3 0.3,-0.3 c 0.4,-0.4 0.4,-1 0,-1.4 -0.4,-0.4 -1,-0.4 -1.4,0 l -0.3,0.3 -0.3,-0.3 c -0.4,-0.4 -1,-0.4 -1.4,0 -0.4,0.4 -0.4,1 0,1.4 l 0.3,0.3 -0.3,0.3 c -0.4,0.4 -0.4,1 0,1.4 z"
           inkscape:connector-curvature="0"
           style="fill:#ffffff" />
        <path
           id="path4152"
           d="m 61.2,79.7 c -1.8,0 -3.3,1.5 -3.3,3.3 0,1.8 1.5,3.3 3.3,3.3 1.8,0 3.3,-1.5 3.3,-3.3 0,-1.8 -1.5,-3.3 -3.3,-3.3 z m 0,4.7 c -0.7,0 -1.3,-0.6 -1.3,-1.3 0,-0.7 0.6,-1.3 1.3,-1.3 0.7,0 1.3,0.6 1.3,1.3 0,0.7 -0.6,1.3 -1.3,1.3 z"
           inkscape:connector-curvature="0"
           style="fill:#ffffff" />
        <path
           id="path4154"
           d="m 85.5,79.1 c -1.4,0 -2.5,1.1 -2.5,2.5 0,1.4 1.1,2.5 2.5,2.5 1.4,0 2.5,-1.1 2.5,-2.5 0,-1.4 -1.2,-2.5 -2.5,-2.5 z m 0,3 c -0.3,0 -0.5,-0.2 -0.5,-0.5 0,-0.3 0.2,-0.5 0.5,-0.5 0.3,0 0.5,0.2 0.5,0.5 0,0.3 -0.3,0.5 -0.5,0.5 z"
           inkscape:connector-curvature="0"
           style="fill:#ffffff" />
        <path
           id="path4156"
           d="m 15.7,34.5 c 0,-1.6 -1.3,-3 -3,-3 -1.7,0 -3,1.3 -3,3 0,1.7 1.3,3 3,3 1.7,0 3,-1.4 3,-3 z m -3,1 c -0.5,0 -1,-0.4 -1,-1 0,-0.5 0.4,-1 1,-1 0.6,0 1,0.4 1,1 0,0.5 -0.5,1 -1,1 z"
           inkscape:connector-curvature="0"
           style="fill:#ffffff" />
        <circle
           id="ellipse4158"
           cy="17.4"
           cx="12.7"
           transform="matrix(0.1101,-0.9939,0.9939,0.1101,-6.0112,28.1187)"
           r="1.2"
           style="fill:#ffffff" />
        <circle
           id="ellipse4160"
           cy="87.300003"
           cx="73.099998"
           transform="matrix(0.1101,-0.9939,0.9939,0.1101,-21.6752,150.3699)"
           r="1.2"
           style="fill:#ffffff" />
        <circle
           id="ellipse4162"
           cy="58.799999"
           cx="70.400002"
           transform="matrix(0.866,-0.5,0.5,0.866,-19.9594,43.0989)"
           r="1.2"
           style="fill:#ffffff" />
        <circle
           id="ellipse4164"
           cy="65.900002"
           cx="92.199997"
           transform="matrix(0.1101,-0.9939,0.9939,0.1101,16.5146,150.2863)"
           r="1.2"
           style="fill:#ffffff" />
        <circle
           id="ellipse4166"
           cy="95.199997"
           cx="43.099998"
           transform="matrix(0.1101,-0.9939,0.9939,0.1101,-56.3476,127.5667)"
           r="1.2"
           style="fill:#ffffff" />
        <circle
           id="ellipse4168"
           cy="29.700001"
           cx="24.200001"
           transform="matrix(0.1101,-0.9939,0.9939,0.1101,-7.9061,50.5034)"
           r="1.2"
           style="fill:#ffffff" />
        <circle
           id="ellipse4170"
           cy="83.099998"
           cx="46.700001"
           transform="matrix(0.5628,-0.8266,0.8266,0.5628,-48.2426,74.9331)"
           r="1.2"
           style="fill:#ffffff" />
        <circle
           id="ellipse4172"
           cy="65.900002"
           cx="7.3000002"
           transform="matrix(0.5628,-0.8266,0.8266,0.5628,-51.2857,34.8726)"
           r="1.2"
           style="fill:#ffffff" />
        <circle
           id="circle4174"
           r="1.2"
           cy="91.800003"
           cx="23"
           style="fill:#ffffff" />
        <circle
           id="circle4176"
           r="1.2"
           cy="16.200001"
           cx="61.200001"
           style="fill:#ffffff" />
        <circle
           id="circle4178"
           r="1.2"
           cy="13.2"
           cx="45.5"
           style="fill:#ffffff" />
        <circle
           id="circle4180"
           r="1.2"
           cy="5.4000001"
           cx="36.299999"
           style="fill:#ffffff" />
        <circle
           id="circle4182"
           r="1.2"
           cy="22.299999"
           cx="88.099998"
           style="fill:#ffffff" />
        <path
           id="path4184"
           d="m 86.1,56.6 c 0.5,0 0.9,-0.3 1,-0.8 0.1,-0.5 -0.3,-1.1 -0.8,-1.2 L 82.9,54 c -0.5,-0.1 -1.1,0.3 -1.2,0.8 -0.1,0.5 0.3,1.1 0.8,1.2 l 3.4,0.6 c 0.1,0 0.2,0 0.2,0 z"
           inkscape:connector-curvature="0"
           style="fill:#ffffff" />
        <path
           id="path4186"
           d="m 55.2,8.1 c 0.1,0 0.1,0 0.2,0 0.5,0 0.9,-0.3 1,-0.8 L 57,3.9 C 57.1,3.4 56.7,2.8 56.2,2.7 55.6,2.7 55.1,3 55,3.6 L 54.4,7 c -0.1,0.5 0.2,1 0.8,1.1 z"
           inkscape:connector-curvature="0"
           style="fill:#ffffff" />
        <path
           id="path4188"
           d="M 7.5,48.4 C 7.2,48 6.6,47.8 6.1,48.2 l -2.8,2 c -0.4,0.3 -0.6,0.9 -0.2,1.4 0.2,0.2 0.5,0.4 0.8,0.4 0.2,0 0.4,-0.1 0.6,-0.2 l 2.8,-2 c 0.4,-0.3 0.5,-0.9 0.2,-1.4 z"
           inkscape:connector-curvature="0"
           style="fill:#ffffff" />
        <path
           id="path4190"
           d="m 61.3,73.6 c 0.1,0 0.1,0 0.2,0 0.5,-0.1 0.9,-0.6 0.8,-1.1 L 62,70.8 C 61.9,70.3 61.4,69.9 60.9,70 60.4,70.1 60,70.6 60.1,71.1 l 0.3,1.7 c 0,0.5 0.5,0.8 0.9,0.8 z"
           inkscape:connector-curvature="0"
           style="fill:#ffffff" />
      </g>
    </g>
  </g>
</svg>
