<?xml version="1.0" encoding="UTF-8" standalone="no"?>
<!-- Created with Inkscape (http://www.inkscape.org/) -->

<svg
   xmlns:dc="http://purl.org/dc/elements/1.1/"
   xmlns:cc="http://creativecommons.org/ns#"
   xmlns:rdf="http://www.w3.org/1999/02/22-rdf-syntax-ns#"
   xmlns:svg="http://www.w3.org/2000/svg"
   xmlns="http://www.w3.org/2000/svg"
   xmlns:sodipodi="http://sodipodi.sourceforge.net/DTD/sodipodi-0.dtd"
   xmlns:inkscape="http://www.inkscape.org/namespaces/inkscape"
   width="19.493351mm"
   height="19.493196mm"
   viewBox="0 0 69.070929 69.070381"
   id="svg4876"
   version="1.1"
   inkscape:version="0.91 r13725"
   sodipodi:docname="pizza.svg">
  <defs
     id="defs4878" />
  <sodipodi:namedview
     id="base"
     pagecolor="#ffffff"
     bordercolor="#666666"
     borderopacity="1.0"
     inkscape:pageopacity="0"
     inkscape:pageshadow="2"
     inkscape:zoom="0.7"
     inkscape:cx="16.632424"
     inkscape:cy="-121.70448"
     inkscape:document-units="px"
     inkscape:current-layer="g5480"
     showgrid="false"
     fit-margin-top="1"
     fit-margin-left="1"
     fit-margin-right="1"
     fit-margin-bottom="1"
     inkscape:window-width="1366"
     inkscape:window-height="747"
     inkscape:window-x="0"
     inkscape:window-y="159"
     inkscape:window-maximized="1" />
  <metadata
     id="metadata4881">
    <rdf:RDF>
      <cc:Work
         rdf:about="">
        <dc:format>image/svg+xml</dc:format>
        <dc:type
           rdf:resource="http://purl.org/dc/dcmitype/StillImage" />
        <dc:title></dc:title>
      </cc:Work>
    </rdf:RDF>
  </metadata>
  <g
     inkscape:label="Layer 1"
     inkscape:groupmode="layer"
     id="layer1"
     transform="translate(-325.929,-223.92487)">
    <g
       id="g5480"
       transform="translate(328.47337,226.45195)">
      <g
         id="g5426"
         style="fill:#ffffff">
        <path
           id="path5428"
           d="M 62.424,31.616 C 62.046,31.225 61.518,31 60.976,31 L 33,31 33,3.024 C 33,2.482 32.775,1.954 32.384,1.576 31.992,1.197 31.475,0.995 30.94,1.018 22.652,1.303 14.668,5.037 9.035,11.264 3.345,17.554 0.514,25.645 1.067,34.046 2.083,49.499 14.501,61.917 29.954,62.933 30.645,62.978 31.333,63 32.019,63 c 7.655,0 14.945,-2.812 20.718,-8.035 6.227,-5.633 9.961,-13.617 10.245,-21.903 0.019,-0.541 -0.179,-1.054 -0.558,-1.446 z M 31,30.633 11.361,24.384 C 14.356,16.293 21.979,10.431 31,10.025 l 0,20.608 z M 10.756,26.29 30.131,32.455 15.761,46.825 C 12.185,42.912 10,37.706 10,32 c 0,-1.975 0.266,-3.888 0.756,-5.71 z m 20.859,7.509 7.272,19.091 C 36.719,53.606 34.405,54 32,54 26.294,54 21.088,51.815 17.175,48.239 l 14.44,-14.44 z m 9.142,18.378 -7.306,-19.178 20.524,-0.005 c -0.384,8.593 -5.721,15.917 -13.218,19.183 z m 10.638,1.305 C 45.51,58.805 37.947,61.458 30.085,60.936 15.63,59.987 4.013,48.37 3.063,33.915 2.546,26.058 5.194,18.49 10.517,12.605 15.79,6.778 23.259,3.283 31,3.024 l 0,5.001 C 18.229,8.552 8,19.102 8,32 8,45.233 18.767,56 32,56 44.9,56 55.451,45.767 55.975,32.993 l 5.009,-0.001 c -0.267,7.749 -3.762,15.218 -9.589,20.49 z"
           inkscape:connector-curvature="0"
           style="fill:#ffffff" />
        <path
           id="path5430"
           d="m 32,46 c 0,-1.654 -1.346,-3 -3,-3 -1.654,0 -3,1.346 -3,3 0,1.654 1.346,3 3,3 1.654,0 3,-1.346 3,-3 z m -3,1 c -0.552,0 -1,-0.448 -1,-1 0,-0.552 0.448,-1 1,-1 0.552,0 1,0.448 1,1 0,0.552 -0.448,1 -1,1 z"
           inkscape:connector-curvature="0"
           style="fill:#ffffff" />
        <path
           id="path5432"
           d="m 45,37 c -1.654,0 -3,1.346 -3,3 0,1.654 1.346,3 3,3 1.654,0 3,-1.346 3,-3 0,-1.654 -1.346,-3 -3,-3 z m 0,4 c -0.552,0 -1,-0.448 -1,-1 0,-0.552 0.448,-1 1,-1 0.552,0 1,0.448 1,1 0,0.552 -0.448,1 -1,1 z"
           inkscape:connector-curvature="0"
           style="fill:#ffffff" />
        <path
           id="path5434"
           d="m 17,37 c 1.654,0 3,-1.346 3,-3 0,-1.654 -1.346,-3 -3,-3 -1.654,0 -3,1.346 -3,3 0,1.654 1.346,3 3,3 z m 0,-4 c 0.552,0 1,0.448 1,1 0,0.552 -0.448,1 -1,1 -0.552,0 -1,-0.448 -1,-1 0,-0.552 0.448,-1 1,-1 z"
           inkscape:connector-curvature="0"
           style="fill:#ffffff" />
        <path
           id="path5436"
           d="m 23,22 c 1.654,0 3,-1.346 3,-3 0,-1.654 -1.346,-3 -3,-3 -1.654,0 -3,1.346 -3,3 0,1.654 1.346,3 3,3 z m 0,-4 c 0.552,0 1,0.448 1,1 0,0.552 -0.448,1 -1,1 -0.552,0 -1,-0.448 -1,-1 0,-0.552 0.448,-1 1,-1 z"
           inkscape:connector-curvature="0"
           style="fill:#ffffff" />
        <path
           id="path5438"
           d="m 45,15 c -1.654,0 -3,1.346 -3,3 0,1.654 1.346,3 3,3 1.654,0 3,-1.346 3,-3 0,-1.654 -1.346,-3 -3,-3 z m 0,4 c -0.552,0 -1,-0.448 -1,-1 0,-0.552 0.448,-1 1,-1 0.552,0 1,0.448 1,1 0,0.552 -0.448,1 -1,1 z"
           inkscape:connector-curvature="0"
           style="fill:#ffffff" />
        <path
           id="path5440"
           d="M 62.427,28.381 C 62.805,27.988 63,27.475 62.979,26.936 62.711,20.128 59.911,13.726 55.092,8.909 50.275,4.091 43.872,1.29 37.066,1.022 36.523,1 36.012,1.195 35.619,1.573 35.226,1.951 35,2.48 35,3.025 L 35,29 60.975,29 c 0.545,0 1.074,-0.226 1.452,-0.619 z M 36.99,9.05 c 4.652,0.249 9.143,2.213 12.446,5.515 2.397,2.398 4.112,5.401 4.961,8.686 l 1.936,-0.5 C 55.396,19.122 53.501,15.802 50.851,13.151 47.174,9.475 42.167,7.3 36.988,7.05 L 36.986,3.02 c 6.303,0.248 12.23,2.842 16.691,7.303 4.461,4.461 7.055,10.388 7.298,16.677 l -4.012,0 c -0.034,-0.721 -0.092,-1.442 -0.2,-2.15 l -1.977,0.301 c 0.093,0.61 0.144,1.229 0.177,1.85 l -17.964,0 L 36.99,9.05 Z"
           inkscape:connector-curvature="0"
           style="fill:#ffffff" />
        <rect
           id="rect5442"
           height="2"
           width="2"
           y="23"
           x="39"
           style="fill:#ffffff" />
        <rect
           id="rect5444"
           height="2"
           width="2"
           y="21"
           x="49"
           style="fill:#ffffff" />
        <rect
           id="rect5446"
           height="2"
           width="2"
           y="26"
           x="27"
           style="fill:#ffffff" />
        <rect
           id="rect5448"
           height="2"
           width="2"
           y="19"
           x="28"
           style="fill:#ffffff" />
        <rect
           id="rect5450"
           height="2"
           width="2"
           y="22"
           x="15"
           style="fill:#ffffff" />
        <rect
           id="rect5452"
           height="2"
           width="2"
           y="39"
           x="13"
           style="fill:#ffffff" />
        <rect
           id="rect5454"
           height="2"
           width="2"
           y="35"
           x="22"
           style="fill:#ffffff" />
        <rect
           id="rect5456"
           height="2"
           width="2"
           y="46"
           x="21"
           style="fill:#ffffff" />
        <rect
           id="rect5458"
           height="2"
           width="2"
           y="50"
           x="31"
           style="fill:#ffffff" />
        <rect
           id="rect5460"
           height="2"
           width="2"
           y="40"
           x="31"
           style="fill:#ffffff" />
        <rect
           id="rect5462"
           height="2"
           width="2"
           y="43"
           x="40"
           style="fill:#ffffff" />
        <rect
           id="rect5464"
           height="2"
           width="2"
           y="37"
           x="49"
           style="fill:#ffffff" />
        <rect
           id="rect5466"
           height="2"
           width="2"
           y="35"
           x="37"
           style="fill:#ffffff" />
        <rect
           id="rect5468"
           height="2"
           width="2"
           y="11"
           x="39"
           style="fill:#ffffff" />
      </g>
    </g>
  </g>
</svg>
